<svg version="1.1" id="Layer_1" xmlns="http://www.w3.org/2000/svg" xmlns:xlink="http://www.w3.org/1999/xlink" x="0px" y="0px"
	 width="100%" viewBox="0 0 366 372" enable-background="new 0 0 366 372" xml:space="preserve">
<path fill="#F8F7F7" opacity="1.000000" stroke="none" 
	d="
M219.000000,373.000000 
	C146.024551,373.000000 73.549110,373.000000 1.036831,373.000000 
	C1.036831,249.066559 1.036831,125.133102 1.036831,1.099824 
	C122.892059,1.099824 244.784225,1.099824 366.838196,1.099824 
	C366.838196,124.999832 366.838196,248.999893 366.838196,373.000000 
	C317.799835,373.000000 268.649933,373.000000 219.000000,373.000000 
M106.500000,359.094727 
	C144.321533,359.093842 182.143295,359.143646 219.964127,358.979279 
	C222.518387,358.968170 225.713547,358.039215 227.518021,356.361786 
	C251.060394,334.477264 274.446320,312.423340 297.714539,290.247192 
	C299.395813,288.644867 300.751587,285.765564 300.757019,283.476410 
	C300.915405,216.664215 300.911682,149.851517 300.854248,83.038994 
	C300.843536,70.593369 294.828552,64.862740 282.234009,64.858894 
	C247.078262,64.848160 211.922241,64.787468 176.767181,64.941895 
	C172.717133,64.959686 170.048492,63.781960 167.451874,60.655045 
	C153.517715,43.875183 139.309204,27.323420 125.318100,10.590338 
	C122.562843,7.295112 120.352219,6.325104 116.797089,9.675992 
	C111.714920,14.466193 106.187469,18.783175 100.863396,23.317768 
	C96.035690,27.429600 95.973251,28.088774 100.023117,32.861691 
	C107.671623,41.875725 115.343605,50.869839 122.990723,59.885040 
	C124.101837,61.194931 125.129539,62.575581 126.930130,64.851707 
	C124.091576,64.851707 122.484543,64.851540 120.877518,64.851730 
	C105.548950,64.853508 90.220177,64.808960 74.891876,64.874069 
	C65.256042,64.914993 57.936832,71.860474 57.185017,81.526123 
	C57.069000,83.017708 57.114346,84.523376 57.117329,86.022461 
	C57.228718,142.003677 57.315338,197.984955 57.470253,253.966049 
	C57.551399,283.287689 57.565109,312.611755 57.992092,341.929108 
	C58.165989,353.869110 63.939358,358.955963 76.009354,359.071381 
	C85.838745,359.165405 95.669724,359.093231 106.500000,359.094727 
z"/>
<path fill="#2D2D2D" opacity="1.000000" stroke="none" 
	d="
M106.000000,359.094727 
	C95.669724,359.093231 85.838745,359.165405 76.009354,359.071381 
	C63.939358,358.955963 58.165989,353.869110 57.992092,341.929108 
	C57.565109,312.611755 57.551399,283.287689 57.470253,253.966049 
	C57.315338,197.984955 57.228718,142.003677 57.117329,86.022461 
	C57.114346,84.523376 57.069000,83.017708 57.185017,81.526123 
	C57.936832,71.860474 65.256042,64.914993 74.891876,64.874069 
	C90.220177,64.808960 105.548950,64.853508 120.877518,64.851730 
	C122.484543,64.851540 124.091576,64.851707 126.930130,64.851707 
	C125.129539,62.575581 124.101837,61.194931 122.990723,59.885040 
	C115.343605,50.869839 107.671623,41.875725 100.023117,32.861691 
	C95.973251,28.088774 96.035690,27.429600 100.863396,23.317768 
	C106.187469,18.783175 111.714920,14.466193 116.797089,9.675992 
	C120.352219,6.325104 122.562843,7.295112 125.318100,10.590338 
	C139.309204,27.323420 153.517715,43.875183 167.451874,60.655045 
	C170.048492,63.781960 172.717133,64.959686 176.767181,64.941895 
	C211.922241,64.787468 247.078262,64.848160 282.234009,64.858894 
	C294.828552,64.862740 300.843536,70.593369 300.854248,83.038994 
	C300.911682,149.851517 300.915405,216.664215 300.757019,283.476410 
	C300.751587,285.765564 299.395813,288.644867 297.714539,290.247192 
	C274.446320,312.423340 251.060394,334.477264 227.518021,356.361786 
	C225.713547,358.039215 222.518387,358.968170 219.964127,358.979279 
	C182.143295,359.143646 144.321533,359.093842 106.000000,359.094727 
M275.733612,174.500092 
	C275.733063,147.670197 275.661011,120.839905 275.810577,94.010841 
	C275.832458,90.079865 275.075714,88.471283 270.676178,88.506439 
	C245.347672,88.708832 220.016708,88.600250 194.686600,88.616875 
	C193.247070,88.617813 191.807663,88.793701 189.320465,88.956924 
	C196.399261,105.105171 203.185410,120.585846 209.971558,136.066513 
	C204.985931,133.965210 200.957260,130.933578 196.781357,128.120438 
	C179.908005,116.753586 160.824921,108.242500 148.852066,90.537514 
	C147.951340,89.205551 145.066742,88.700035 143.097946,88.685616 
	C124.601288,88.550148 106.100922,88.763496 87.607185,88.494270 
	C82.996201,88.427139 82.168831,89.991638 82.184120,94.216927 
	C82.468185,172.705048 82.634804,251.193710 82.671089,329.682312 
	C82.673080,333.986481 83.643578,335.361542 88.168312,335.341095 
	C128.162445,335.160126 168.157730,335.238037 208.152679,335.226013 
	C209.776596,335.225494 211.400482,335.091248 214.060852,334.973389 
	C214.060852,322.291718 213.985458,309.999420 214.121414,297.709442 
	C214.150269,295.101379 214.480118,292.303680 215.479050,289.933807 
	C219.192963,281.122986 226.734436,278.040527 235.596146,277.850830 
	C247.256027,277.601196 258.929535,277.603729 270.588135,277.879852 
	C274.850952,277.980835 275.838806,276.560059 275.819092,272.487427 
	C275.662628,240.158936 275.732910,207.829361 275.733612,174.500092 
z"/>
<path fill="#F6F5F5" opacity="1.000000" stroke="none" 
	d="
M275.733582,175.000092 
	C275.732910,207.829361 275.662628,240.158936 275.819092,272.487427 
	C275.838806,276.560059 274.850952,277.980835 270.588135,277.879852 
	C258.929535,277.603729 247.256027,277.601196 235.596146,277.850830 
	C226.734436,278.040527 219.192963,281.122986 215.479050,289.933807 
	C214.480118,292.303680 214.150269,295.101379 214.121414,297.709442 
	C213.985458,309.999420 214.060852,322.291718 214.060852,334.973389 
	C211.400482,335.091248 209.776596,335.225494 208.152679,335.226013 
	C168.157730,335.238037 128.162445,335.160126 88.168312,335.341095 
	C83.643578,335.361542 82.673080,333.986481 82.671089,329.682312 
	C82.634804,251.193710 82.468185,172.705048 82.184120,94.216927 
	C82.168831,89.991638 82.996201,88.427139 87.607185,88.494270 
	C106.100922,88.763496 124.601288,88.550148 143.097946,88.685616 
	C145.066742,88.700035 147.951340,89.205551 148.852066,90.537514 
	C160.824921,108.242500 179.908005,116.753586 196.781357,128.120438 
	C200.957260,130.933578 204.985931,133.965210 209.971558,136.066513 
	C203.185410,120.585846 196.399261,105.105171 189.320465,88.956924 
	C191.807663,88.793701 193.247070,88.617813 194.686600,88.616875 
	C220.016708,88.600250 245.347672,88.708832 270.676178,88.506439 
	C275.075714,88.471283 275.832458,90.079865 275.810577,94.010841 
	C275.661011,120.839905 275.733063,147.670197 275.733582,175.000092 
M131.606766,202.844177 
	C131.787903,201.861649 131.925018,200.868607 132.156937,199.898209 
	C134.421295,190.423843 138.985703,185.915939 147.231964,184.983063 
	C155.282074,184.072403 158.939560,186.534714 163.951385,195.932465 
	C164.443512,196.855270 165.977554,197.979630 166.815536,197.828934 
	C170.332108,197.196640 173.767792,196.114685 177.185715,195.209946 
	C173.320389,177.316299 156.792175,168.592178 139.132401,174.536514 
	C124.361649,179.508392 116.457832,193.235077 117.995880,211.244720 
	C120.082947,235.683075 140.107056,248.885101 161.686935,240.050537 
	C170.725662,236.350174 177.929611,226.116379 177.619247,217.046158 
	C173.759186,216.091202 169.808273,215.113770 165.654129,214.086044 
	C165.167923,215.713135 164.862885,216.812897 164.511429,217.897629 
	C161.722870,226.504547 156.557404,230.537582 148.592743,230.339493 
	C140.256912,230.132172 134.570877,225.532761 132.609909,216.627319 
	C131.692307,212.460159 131.835159,208.059464 131.606766,202.844177 
M200.056046,236.551895 
	C200.813004,241.533142 204.372437,241.333801 208.253372,241.454926 
	C212.092056,241.574738 214.275970,240.627502 215.721695,236.759140 
	C221.136765,222.269928 226.917450,207.917603 232.529404,193.501633 
	C234.979431,187.207993 237.352982,180.884583 240.016510,173.905899 
	C236.548187,173.905899 233.888611,174.138519 231.286530,173.850952 
	C227.460876,173.428162 225.831497,174.977402 224.555969,178.623123 
	C219.886917,191.968063 214.773163,205.157684 209.793182,218.393112 
	C209.319519,219.651993 208.610748,220.822418 207.612320,222.839600 
	C201.952377,207.078491 196.706879,192.359070 191.332230,177.686966 
	C190.821060,176.291550 189.603088,174.238510 188.539352,174.125320 
	C184.551529,173.701035 180.491501,173.955444 175.805542,173.955444 
	C184.044708,195.247971 191.898987,215.545853 200.056046,236.551895 
z"/>
<path fill="#323232" opacity="1.000000" stroke="none" 
	d="
M131.552063,203.304398 
	C131.835159,208.059464 131.692307,212.460159 132.609909,216.627319 
	C134.570877,225.532761 140.256912,230.132172 148.592743,230.339493 
	C156.557404,230.537582 161.722870,226.504547 164.511429,217.897629 
	C164.862885,216.812897 165.167923,215.713135 165.654129,214.086044 
	C169.808273,215.113770 173.759186,216.091202 177.619247,217.046158 
	C177.929611,226.116379 170.725662,236.350174 161.686935,240.050537 
	C140.107056,248.885101 120.082947,235.683075 117.995880,211.244720 
	C116.457832,193.235077 124.361649,179.508392 139.132401,174.536514 
	C156.792175,168.592178 173.320389,177.316299 177.185715,195.209946 
	C173.767792,196.114685 170.332108,197.196640 166.815536,197.828934 
	C165.977554,197.979630 164.443512,196.855270 163.951385,195.932465 
	C158.939560,186.534714 155.282074,184.072403 147.231964,184.983063 
	C138.985703,185.915939 134.421295,190.423843 132.156937,199.898209 
	C131.925018,200.868607 131.787903,201.861649 131.552063,203.304398 
z"/>
<path fill="#323232" opacity="1.000000" stroke="none" 
	d="
M199.904663,236.197815 
	C191.898987,215.545853 184.044708,195.247971 175.805542,173.955444 
	C180.491501,173.955444 184.551529,173.701035 188.539352,174.125320 
	C189.603088,174.238510 190.821060,176.291550 191.332230,177.686966 
	C196.706879,192.359070 201.952377,207.078491 207.612320,222.839600 
	C208.610748,220.822418 209.319519,219.651993 209.793182,218.393112 
	C214.773163,205.157684 219.886917,191.968063 224.555969,178.623123 
	C225.831497,174.977402 227.460876,173.428162 231.286530,173.850952 
	C233.888611,174.138519 236.548187,173.905899 240.016510,173.905899 
	C237.352982,180.884583 234.979431,187.207993 232.529404,193.501633 
	C226.917450,207.917603 221.136765,222.269928 215.721695,236.759140 
	C214.275970,240.627502 212.092056,241.574738 208.253372,241.454926 
	C204.372437,241.333801 200.813004,241.533142 199.904663,236.197815 
z"/>
</svg>